<?xml version="1.0" encoding="UTF-8"?>
<svg version="1.1" xmlns="http://www.w3.org/2000/svg" width="800" height="800">
<path d="M0 0 C264 0 528 0 800 0 C800 264 800 528 800 800 C536 800 272 800 0 800 C0 536 0 272 0 0 Z " fill="#000000" transform="translate(0,0)"/>
<path d="M0 0 C3.17100132 2.09741119 5.59185919 4.5833258 8.03515625 7.48046875 C12.26164265 12.36638719 16.8275787 16.87293809 21.4296875 21.40234375 C26.61141577 26.50221217 31.65587593 31.62467766 36.39257812 37.14257812 C38.46210697 39.51188625 40.67645227 41.70840419 42.9296875 43.90234375 C45.86086941 46.79826333 48.69371924 49.70476946 51.3671875 52.83984375 C54.23141085 56.19159448 57.29302466 59.30791131 60.4296875 62.40234375 C64.16999088 66.09228963 67.712081 69.87738073 71.12109375 73.875 C74.10496754 77.21977429 77.33588482 80.31569532 80.5234375 83.46484375 C83.17928503 86.15518281 85.63104182 88.968079 88.0859375 91.83984375 C90.27765063 94.29159064 92.59035854 96.59119948 94.9296875 98.90234375 C98.49369052 102.42340698 101.83272918 106.03420383 105.0859375 109.83984375 C108.0819669 113.19133427 111.31865368 116.29869403 114.515625 119.45703125 C117.21720044 122.19357854 119.72047485 125.05213741 122.21875 127.97265625 C124.04768613 130.03542896 125.96549208 131.96825095 127.9296875 133.90234375 C130.40628371 136.34134457 132.74999607 138.80976797 134.9921875 141.46484375 C138.59084796 145.66189579 142.50427467 149.51497708 146.4296875 153.40234375 C150.83837463 157.76846572 155.12711903 162.13650673 159.12890625 166.8828125 C162.11316221 170.22958112 165.34118602 173.33322606 168.53027344 176.48339844 C171.25429638 179.18695283 173.88333968 181.91001826 176.3671875 184.83984375 C180.05445085 189.17939939 184.11914073 193.11780201 188.16503906 197.11816406 C191.67373319 200.60253449 194.99129804 204.1734728 198.19140625 207.9453125 C201.14328584 211.26866457 204.35461144 214.33421725 207.515625 217.45703125 C210.21720044 220.19357854 212.72047485 223.05213741 215.21875 225.97265625 C217.04768613 228.03542896 218.96549208 229.96825095 220.9296875 231.90234375 C223.46783549 234.40174139 225.87097053 236.94016167 228.1796875 239.65234375 C231.23167276 243.21415721 234.52053377 246.49606651 237.8671875 249.77734375 C254.17770077 265.84896823 254.17770077 265.84896823 254.3046875 275.65234375 C254.16172648 282.98803102 252.32834723 287.32817234 247.3671875 292.65234375 C239.82040634 298.23362417 229.40293196 300.00203023 220.52758789 302.62304688 C215.5592652 304.09350455 210.64126884 305.64935484 205.7421875 307.33984375 C197.96065987 309.9847127 190.0548963 312.12968356 182.13256836 314.30957031 C175.11604842 316.25285166 168.23952402 318.40729528 161.35546875 320.77734375 C155.28922731 322.7694504 149.11751099 324.33370158 142.9296875 325.90234375 C142.0325 326.13050781 141.1353125 326.35867188 140.2109375 326.59375 C138.45216709 327.03653903 136.69128332 327.47093253 134.9296875 327.90234375 C135.62697257 316.98971828 136.66151546 306.12997659 137.77734375 295.25390625 C137.95545879 293.5027346 138.13338815 291.75154405 138.31114197 290.00033569 C138.77453501 285.43991496 139.24041279 280.87975155 139.70684814 276.31964111 C140.18435209 271.64684369 140.65945091 266.97380177 141.13476562 262.30078125 C142.06408207 253.16773092 142.99602952 244.0349512 143.9296875 234.90234375 C140.78328925 235.83925926 137.6376784 236.77879319 134.4921875 237.71875 C133.61369141 237.98030884 132.73519531 238.24186768 131.83007812 238.51135254 C125.5061717 240.4029823 119.21093591 242.36916353 112.96777344 244.51379395 C109.51542679 245.63945024 107.35268458 246.15598382 103.9296875 244.90234375 C102.41259766 243.64990234 102.41259766 243.64990234 100.96875 242.05078125 C100.4212207 241.45354248 99.87369141 240.85630371 99.30957031 240.2409668 C98.73045898 239.59297119 98.15134766 238.94497559 97.5546875 238.27734375 C96.31273296 236.91645403 95.07053806 235.55578363 93.828125 234.1953125 C93.1897168 233.49067871 92.55130859 232.78604492 91.89355469 232.06005859 C88.68881071 228.5389836 85.43281747 225.06615258 82.1796875 221.58984375 C81.58365723 220.95030762 80.98762695 220.31077148 80.37353516 219.65185547 C79.81972168 219.05775879 79.2659082 218.46366211 78.6953125 217.8515625 C78.20836914 217.32908936 77.72142578 216.80661621 77.21972656 216.26831055 C76.14247498 215.12765524 75.03909399 214.01175024 73.9296875 212.90234375 C74.4040625 213.95421875 74.8784375 215.00609375 75.3671875 216.08984375 C78.96170319 224.06029158 79.49360179 234.43595175 77.09375 242.82421875 C70.08534731 257.96989437 55.01017467 265.01171093 40.1796875 270.52734375 C37.05133212 271.66282979 33.91813056 272.78257332 30.77978516 273.89013672 C28.31272706 274.76630794 25.85956269 275.66970905 23.41015625 276.59375 C12.65350759 280.60669911 1.65487097 283.44909368 -9.47314453 286.23828125 C-11.69127387 286.80542844 -13.89570329 287.40097012 -16.09765625 288.02734375 C-23.4095939 290.09569296 -30.72684986 291.69909916 -38.1953125 293.08984375 C-39.07775635 293.25693848 -39.9602002 293.4240332 -40.86938477 293.59619141 C-81.83250681 300.93546468 -123.38443327 294.82367344 -158.5078125 271.96484375 C-160.37781833 270.63263522 -162.23081281 269.27636787 -164.0703125 267.90234375 C-165.37587171 266.95383443 -166.68189608 266.00596515 -167.98828125 265.05859375 C-174.8326769 260.05049937 -181.46071361 254.93109197 -187.6640625 249.1328125 C-188.96137966 247.93026689 -190.26725428 246.73549505 -191.61694336 245.59204102 C-198.32249248 239.89865025 -204.47413644 233.64920287 -210.67944336 227.42358398 C-212.6282812 225.46938751 -214.58240522 223.52059228 -216.53710938 221.57226562 C-227.61292439 210.50228249 -227.61292439 210.50228249 -232.69311523 204.52026367 C-234.81614672 202.0261439 -237.0780431 199.66405382 -239.3203125 197.27734375 C-244.82958079 191.32993605 -249.82190977 185.04475188 -254.74707031 178.61083984 C-255.99584385 176.99849349 -257.27822188 175.41233642 -258.5625 173.828125 C-269.75408698 159.86545818 -278.46515441 144.90939011 -284.0703125 127.90234375 C-284.15595459 128.90088379 -284.24159668 129.89942383 -284.32983398 130.92822266 C-284.64985574 134.65206579 -284.97302493 138.37563036 -285.29711914 142.09912109 C-285.4366429 143.70712032 -285.57532635 145.3151927 -285.71313477 146.92333984 C-285.91198495 149.24206216 -286.11390983 151.56049986 -286.31640625 153.87890625 C-286.3768663 154.59164703 -286.43732635 155.30438782 -286.49961853 156.03872681 C-286.85197506 160.03446701 -287.38865644 163.95095245 -288.0703125 167.90234375 C-288.22165354 170.23411675 -288.34318048 172.56789767 -288.4453125 174.90234375 C-288.8601851 182.87917047 -289.54919041 190.82956581 -290.31158447 198.77954102 C-290.44232816 200.15228872 -290.56989595 201.52534263 -290.6942749 202.89868164 C-290.87180719 204.84735893 -291.06260193 206.794814 -291.25390625 208.7421875 C-291.36275146 209.88034912 -291.47159668 211.01851074 -291.58374023 212.19116211 C-292.0703125 214.90234375 -292.0703125 214.90234375 -294.0703125 216.90234375 C-301.9433591 209.94211415 -309.44531736 202.63677249 -316.8828125 195.21484375 C-317.77766357 194.32450439 -318.67251465 193.43416504 -319.59448242 192.5168457 C-324.01272728 188.08872123 -328.26459688 183.59744975 -332.33862305 178.85229492 C-335.57911112 175.20337652 -339.08995812 171.82043777 -342.5703125 168.40234375 C-347.36011194 163.69822946 -351.96000093 158.93961733 -356.33740234 153.84912109 C-359.27055508 150.55397318 -362.46580807 147.53260193 -365.6328125 144.46484375 C-380.05801169 130.27623902 -380.05801169 130.27623902 -380.4453125 119.71484375 C-380.37962835 112.62095564 -377.70743057 108.61480805 -372.8828125 103.65234375 C-365.33349105 98.95498818 -356.37261756 96.61107075 -347.9453125 93.96484375 C-346.84292236 93.61566895 -345.74053223 93.26649414 -344.60473633 92.90673828 C-341.4277351 91.90161426 -338.24918293 90.90153708 -335.0703125 89.90234375 C-333.57674451 89.42993531 -332.0832438 88.95731406 -330.58984375 88.484375 C-322.57756554 85.95549346 -314.53480987 83.5341607 -306.484375 81.13012695 C-300.75153195 79.41543184 -295.03519209 77.65656829 -289.32861328 75.85620117 C-285.56670032 74.6725794 -281.79806951 73.5162462 -278.01953125 72.38671875 C-266.77113871 69.01872616 -255.58775854 65.47939253 -244.4453125 61.77734375 C-243.21345215 61.3697583 -241.9815918 60.96217285 -240.71240234 60.54223633 C-234.91405157 58.60306315 -229.17562412 56.5828333 -223.484375 54.34765625 C-218.1991553 52.28389998 -212.87484687 50.55570318 -207.44091797 48.9296875 C-200.65409051 46.86109631 -193.9483764 44.53574349 -187.22973633 42.25683594 C-178.24114451 39.2117353 -169.21701681 36.43229817 -160.0703125 33.90234375 C-159.21397217 33.66209473 -158.35763184 33.4218457 -157.4753418 33.17431641 C-155.11321954 32.51342189 -152.74870989 31.86208824 -150.3828125 31.21484375 C-149.48183838 30.96774658 -148.58086426 30.72064941 -147.65258789 30.46606445 C-141.74657275 28.86081489 -135.82582888 27.32477091 -129.890625 25.83203125 C-113.59610577 21.72735566 -97.51110081 17.32918706 -81.4921875 12.234375 C-71.73967599 9.14008249 -61.91347394 6.29750657 -52.08959961 3.43969727 C-50.74327737 3.04720736 -49.39700392 2.65455003 -48.05078125 2.26171875 C-47.3969194 2.07141083 -46.74305756 1.88110291 -46.06938171 1.68502808 C-42.59534992 0.66723873 -39.13583199 -0.38569164 -35.68701172 -1.48608398 C-34.96693436 -1.71539612 -34.24685699 -1.94470825 -33.50495911 -2.18096924 C-32.13405984 -2.62002515 -30.76455414 -3.06346663 -29.39677429 -3.512146 C-18.89887569 -6.87875602 -9.71140535 -5.14887718 0 0 Z " fill="#FEFEFE" transform="translate(453.0703125,160.09765625)"/>
<path d="M0 0 C3.45858884 3.18474795 6.41808176 6.81836706 9.34765625 10.48535156 C10.07984375 11.13117188 10.81203125 11.77699219 11.56640625 12.44238281 C15.18543397 12.01361313 18.58290431 10.86818253 22.04345703 9.75244141 C23.65004684 9.23718399 23.65004684 9.23718399 25.28909302 8.71151733 C26.43505951 8.34168732 27.581026 7.9718573 28.76171875 7.59082031 C31.19259172 6.81441345 33.62358496 6.03838306 36.0546875 5.26269531 C39.88557119 4.0374828 43.71573974 2.81026011 47.54345703 1.57519531 C51.23821168 0.38344816 54.9373888 -0.79420915 58.63671875 -1.97167969 C59.7867337 -2.34555817 60.93674866 -2.71943665 62.12161255 -3.10464478 C63.71874588 -3.61044571 63.71874588 -3.61044571 65.34814453 -4.12646484 C66.75448654 -4.57827621 66.75448654 -4.57827621 68.1892395 -5.03921509 C70.56640625 -5.55761719 70.56640625 -5.55761719 73.56640625 -4.55761719 C77.80158576 4.06960034 77.03122495 12.07843369 75.296875 21.31347656 C74.43855357 23.81500159 73.57594284 24.74126567 71.56640625 26.44238281 C69.49194336 27.33032227 69.49194336 27.33032227 67.09375 28.05566406 C66.20357178 28.33095947 65.31339355 28.60625488 64.39624023 28.88989258 C62.96453491 29.31806274 62.96453491 29.31806274 61.50390625 29.75488281 C59.49311956 30.37347296 57.48270715 30.99328094 55.47265625 31.61425781 C54.47105469 31.92169922 53.46945312 32.22914063 52.4375 32.54589844 C48.43513592 33.7956162 44.47091383 35.14806818 40.50390625 36.50488281 C33.48582623 38.88314139 26.40446703 40.92382087 19.26367188 42.89819336 C9.56503586 45.63322994 0.04187199 48.90605941 -9.48144531 52.19140625 C-10.71475586 52.61196289 -11.94806641 53.03251953 -13.21875 53.46582031 C-14.320979 53.84657715 -15.42320801 54.22733398 -16.55883789 54.61962891 C-19.43359375 55.44238281 -19.43359375 55.44238281 -23.43359375 55.44238281 C-18.61372691 61.77014096 -13.50465123 67.50569592 -7.81640625 73.06347656 C-5.08764916 75.78776028 -2.5834784 78.65129982 -0.078125 81.57910156 C2.10306211 84.05042283 4.4459959 86.33317626 6.796875 88.64160156 C9.34832376 91.23810902 11.7153493 93.9819984 14.0859375 96.74316406 C16.58262844 99.818517 16.58262844 99.818517 20.32958984 100.67724609 C23.64425155 100.43673436 26.22365824 99.77590378 29.35546875 98.68457031 C30.45286377 98.30888916 31.55025879 97.93320801 32.6809082 97.54614258 C33.83937256 97.14065186 34.99783691 96.73516113 36.19140625 96.31738281 C38.61375561 95.48813804 41.03694216 94.66133502 43.4609375 93.83691406 C44.65928223 93.42908691 45.85762695 93.02125977 47.09228516 92.60107422 C54.22198242 90.22317238 61.43433991 88.12111108 68.65087891 86.02490234 C70.38355365 85.49798902 72.09243512 84.89434101 73.796875 84.28222656 C76.66186587 83.41343525 78.60822941 82.94192073 81.56640625 83.44238281 C85.87918246 87.75515903 87.96797976 93.15986749 88.19140625 99.19238281 C87.73751795 106.07796493 84.5766839 109.61171638 79.81640625 114.31738281 C60.61164851 130.54632346 29.67859882 137.86269581 5.56640625 142.44238281 C4.34739624 142.70631836 4.34739624 142.70631836 3.10375977 142.97558594 C-13.8767814 146.09949575 -29.52936882 143.04539234 -43.7734375 133.39550781 C-50.49959474 128.45706638 -56.87354431 123.24560705 -62.65356445 117.21972656 C-64.4120938 115.46385033 -66.23963562 113.86683937 -68.13671875 112.26269531 C-72.55775954 108.42047351 -76.52847958 104.24480051 -80.49609375 99.94238281 C-84.90291237 95.19134789 -89.34187986 90.50145201 -93.9440918 85.93896484 C-95.64381708 84.23116022 -97.24473746 82.46265619 -98.80859375 80.62988281 C-101.38108348 77.64007808 -104.0134949 74.72028388 -106.68359375 71.81738281 C-132.19617701 43.39280112 -132.19617701 43.39280112 -131.87109375 26.50878906 C-131.27083929 22.30164845 -130.01270325 20.23689161 -126.984375 17.30566406 C-107.24737049 2.88828098 -80.23053364 -3.18020256 -57.05859375 -9.43261719 C-56.31681885 -9.63580566 -55.57504395 -9.83899414 -54.81079102 -10.04833984 C-34.15675867 -15.4644841 -16.48893664 -14.01559615 0 0 Z " fill="#010101" transform="translate(399.43359375,251.5576171875)"/>
<path d="M0 0 C6.12597338 5.74200923 8.60739939 14.06429574 9.75 22.0625 C0.18 27.3425 -9.39 32.6225 -19.25 38.0625 C-16.06398861 38.0625 -13.71553088 37.83964769 -10.66015625 37.1875 C-9.79326172 37.00703125 -8.92636719 36.8265625 -8.03320312 36.640625 C-6.22313836 36.25600248 -4.41324148 35.87058902 -2.60351562 35.484375 C-1.73533203 35.30390625 -0.86714844 35.1234375 0.02734375 34.9375 C0.81359131 34.76992188 1.59983887 34.60234375 2.40991211 34.4296875 C4.89209395 34.04020378 7.24151993 34.00028103 9.75 34.0625 C10.86752254 46.0758673 4.73226003 60.04168836 -2.73046875 69.234375 C-13.31443677 81.55950281 -26.8935633 90.04595301 -43.25 92.0625 C-51.52199202 92.68230344 -58.47559909 92.31024031 -64.9375 86.75 C-66.0821875 85.4196875 -66.0821875 85.4196875 -67.25 84.0625 C-68.11625 83.155 -68.9825 82.2475 -69.875 81.3125 C-78.51485824 70.79795554 -77.05626365 53.71948805 -76.25 41.0625 C-74.35864058 26.6465715 -64.88479951 15.28325415 -54.25 6.0625 C-39.3518831 -5.12269057 -16.62625847 -9.91180793 0 0 Z " fill="#FCFCFC" transform="translate(471.25,553.9375)"/>
<path d="M0 0 C2.31337695 8.46689008 4.62582256 16.93403382 6.93710136 25.40149689 C8.01051263 29.33386897 9.08423648 33.26615513 10.15869141 37.19824219 C11.19686861 40.99761319 12.23420287 44.79721343 13.27096939 48.5969696 C13.66534959 50.04180484 14.06002613 51.48655921 14.45501328 52.93122864 C16.37051169 59.93788971 18.28286217 66.9415348 20 74 C15.09012281 76.2091255 10.24086018 77.91977845 5.0625 79.375 C3.57517709 79.80219045 2.08820673 80.23060994 0.6015625 80.66015625 C-0.15350586 80.87816895 -0.90857422 81.09618164 -1.68652344 81.32080078 C-5.49301012 82.43832357 -9.27815638 83.62248712 -13.0625 84.8125 C-14.10748657 85.14096924 -14.10748657 85.14096924 -15.17358398 85.47607422 C-16.78276416 85.98286082 -18.39144354 86.49123719 -20 87 C-20.99 84.03 -21.98 81.06 -23 78 C-25.97 78.99 -28.94 79.98 -32 81 C-32.33 84.3 -32.66 87.6 -33 91 C-39.40146236 93.65906898 -45.85426187 95.98781428 -52.44262695 98.13232422 C-57.07293486 99.65275904 -61.57148453 101.37514556 -66.046875 103.30078125 C-68 104 -68 104 -71 104 C-71.27902076 97.30052823 -70.21786878 91.33827656 -68.80078125 84.8046875 C-66.84494981 75.44370718 -65.13348035 66.072755 -63.60546875 56.6328125 C-63.00260561 53.01490052 -62.3963389 49.39756993 -61.78979492 45.78027344 C-61.38208393 43.30591228 -60.9862621 40.82956769 -60.60131836 38.3515625 C-60.03181186 34.70974946 -59.41698474 31.07812664 -58.79296875 27.4453125 C-58.63120651 26.33616486 -58.46944427 25.22701721 -58.30278015 24.08425903 C-56.98228372 16.74116088 -56.98228372 16.74116088 -54.29243469 14.71159363 C-52.19931067 13.90380845 -50.20059467 13.42577565 -48 13 C-46.82928955 12.60562744 -45.6585791 12.21125488 -44.45239258 11.80493164 C-43.27829834 11.42715576 -42.1042041 11.04937988 -40.89453125 10.66015625 C-40.24860519 10.45192734 -39.60267914 10.24369843 -38.93717957 10.02915955 C-37.5803989 9.59218651 -36.22332452 9.15612448 -34.8659668 8.72094727 C-32.83378851 8.06932619 -30.80256412 7.41480177 -28.77148438 6.75976562 C-26.12778061 5.90792115 -23.48203318 5.06292105 -20.83447266 4.22314453 C-18.30113508 3.41946889 -15.7782169 2.59454453 -13.25537109 1.75732422 C-12.10246582 1.38236816 -10.94956055 1.00741211 -9.76171875 0.62109375 C-8.74424561 0.28392334 -7.72677246 -0.05324707 -6.6784668 -0.40063477 C-3.89576042 -1.02332588 -2.66536617 -0.78169368 0 0 Z " fill="#FCFCFC" transform="translate(550,521)"/>
<path d="M0 0 C4.37867174 2.985458 6.75955676 6.70787629 7.75 11.875 C8.75015212 23.05702863 6.25736511 31.43016896 -0.734375 40.1875 C-3.55485431 43.32782748 -6.75907268 45.54771512 -10.25 47.875 C-6.95 46.885 -3.65 45.895 -0.25 44.875 C1.46629992 48.51947462 3.17507146 52.16737269 4.87695312 55.81860352 C5.45692555 57.06012726 6.03894376 58.30069747 6.62304688 59.5402832 C7.46241266 61.32250801 8.29381633 63.10847585 9.125 64.89453125 C9.62773438 65.96807861 10.13046875 67.04162598 10.6484375 68.14770508 C11.75 70.875 11.75 70.875 11.75 73.875 C11.01998779 74.09639648 10.28997559 74.31779297 9.5378418 74.54589844 C6.17011507 75.56918051 2.80380891 76.59706377 -0.5625 77.625 C-1.71041016 77.97304688 -2.85832031 78.32109375 -4.04101562 78.6796875 C-10.48347835 80.65075258 -16.83265748 82.75155891 -23.12963867 85.14941406 C-25.25 85.875 -25.25 85.875 -27.25 85.875 C-29.89 77.955 -32.53 70.035 -35.25 61.875 C-35.58 70.785 -35.91 79.695 -36.25 88.875 C-40.32369255 90.30347077 -44.39816417 91.72906049 -48.4753418 93.14746094 C-49.86199243 93.63081792 -51.24806621 94.11583311 -52.63354492 94.60253906 C-54.62529498 95.30189953 -56.61904455 95.99526718 -58.61328125 96.6875 C-59.81251221 97.10644531 -61.01174316 97.52539062 -62.24731445 97.95703125 C-65.25 98.875 -65.25 98.875 -68.25 98.875 C-68.98039515 71.53568788 -69.40555665 44.22425266 -69.25 16.875 C-45.65320029 9.33876614 -45.65320029 9.33876614 -37.8671875 6.984375 C-34.78108515 6.03788141 -31.70687458 5.06271443 -28.6328125 4.078125 C-26.56777112 3.42688421 -24.50266639 2.77584425 -22.4375 2.125 C-20.9680896 1.64740234 -20.9680896 1.64740234 -19.46899414 1.16015625 C-12.69544782 -0.955819 -6.91777508 -2.39461445 0 0 Z " fill="#FBFBFB" transform="translate(640.25,495.125)"/>
<path d="M0 0 C0 10.56 0 21.12 0 32 C-2.76375 32.825 -5.5275 33.65 -8.375 34.5 C-9.24431152 34.76103516 -10.11362305 35.02207031 -11.00927734 35.29101562 C-12.03722412 35.59555664 -12.03722412 35.59555664 -13.0859375 35.90625 C-13.7876709 36.11572266 -14.4894043 36.32519531 -15.21240234 36.54101562 C-17 37 -17 37 -19 37 C-19 52.84 -19 68.68 -19 85 C-25.63191675 87.41160609 -32.11927594 89.74210168 -38.875 91.6875 C-39.59429688 91.89955078 -40.31359375 92.11160156 -41.0546875 92.33007812 C-44.69795847 93.39158263 -48.27181244 94.25436249 -52 95 C-52 79.49 -52 63.98 -52 48 C-59.425 50.475 -59.425 50.475 -67 53 C-68.32 53 -69.64 53 -71 53 C-71 42.11 -71 31.22 -71 20 C-54.14984354 15.0086815 -54.14984354 15.0086815 -46.97460938 12.890625 C-42.07539326 11.44440113 -37.17645234 9.997287 -32.27905273 8.54492188 C-28.33141426 7.37427657 -24.3826278 6.20758312 -20.43300819 5.04364014 C-18.92508548 4.59850102 -17.4175845 4.15193073 -15.91051292 3.70391846 C-13.80235606 3.07748331 -11.69276778 2.45611731 -9.58276367 1.8359375 C-8.38141281 1.48063965 -7.18006195 1.1253418 -5.94230652 0.75927734 C-3 0 -3 0 0 0 Z " fill="#FCFCFC" transform="translate(722,467)"/>
<path d="M0 0 C3 2 3 2 3.9375 5.75 C4.24829751 9.17498851 3.96490977 10.06888083 2.3125 13.3125 C-1.88324463 18.18863565 -4.5826563 19.35151297 -10.87890625 20.1796875 C-13 20 -13 20 -14.75 18.74609375 C-16.50130503 16.29973954 -16.47049917 14.00347942 -16.3515625 11.0625 C-15.5949758 6.62385802 -13.08361266 3.87860486 -9.6875 1.125 C-6.25798689 -0.31061014 -3.68462145 -0.34116865 0 0 Z " fill="#080808" transform="translate(444,587)"/>
<path d="M0 0 C2 3 2 3 1.9375 6.375 C0.78105065 10.84660416 -0.28072336 12.26747022 -4 15 C-7.31085516 16.26055494 -10.55319379 17.12680909 -14 18 C-14 12.72 -14 7.44 -14 2 C-8.28819403 0.09606468 -5.72818182 -0.47734848 0 0 Z " fill="#0B0B0B" transform="translate(617,533)"/>
<path d="M0 0 C1.97626736 1.97626736 1.31934627 5.5634426 1.375 8.25 C1.41238281 8.91902344 1.44976563 9.58804688 1.48828125 10.27734375 C1.55733399 14.18265979 1.0840096 15.88740981 -1.2734375 19.046875 C-2.17320312 19.69140625 -3.07296875 20.3359375 -4 21 C-6.17041016 20.62207031 -6.17041016 20.62207031 -8 20 C-8.08069658 17.04112541 -8.14034665 14.0844341 -8.1875 11.125 C-8.21263672 10.28324219 -8.23777344 9.44148437 -8.26367188 8.57421875 C-8.27333984 7.76855469 -8.28300781 6.96289062 -8.29296875 6.1328125 C-8.3086792 5.38918457 -8.32438965 4.64555664 -8.34057617 3.87939453 C-8.22818604 3.25919434 -8.1157959 2.63899414 -8 2 C-4.77786243 -0.14809171 -3.72224599 -0.29386153 0 0 Z " fill="#E7E7E7" transform="translate(651,587)"/>
<path d="M0 0 C2.27337151 3.41005726 2.53319961 5.49656816 3.0703125 9.53125 C3.24433594 10.81644531 3.41835938 12.10164062 3.59765625 13.42578125 C3.68418457 14.09432129 3.77071289 14.76286133 3.85986328 15.45166016 C4.12417296 17.49361065 4.39892427 19.53393526 4.67578125 21.57421875 C6 31.50088111 6 31.50088111 6 35 C3.03 35.99 0.06 36.98 -3 38 C-3.09630976 32.32414481 -2.75418326 26.87983816 -2.0625 21.25 C-1.23215388 14.17521672 -0.52936962 7.10469752 0 0 Z " fill="#111111" transform="translate(521,556)"/>
<path d="M0 0 C0.66 0 1.32 0 2 0 C2 6.6 2 13.2 2 20 C0.68 20.33 -0.64 20.66 -2 21 C-2.66 18.69 -3.32 16.38 -4 14 C-4.33 16.97 -4.66 19.94 -5 23 C-5.99 23 -6.98 23 -8 23 C-8 16.4 -8 9.8 -8 3 C-6.68 2.67 -5.36 2.34 -4 2 C-3.34 3.65 -2.68 5.3 -2 7 C-1.34 4.69 -0.68 2.38 0 0 Z " fill="#DBDBDB" transform="translate(688,573)"/>
<path d="M0 0 C0.66 0 1.32 0 2 0 C2 6.6 2 13.2 2 20 C1.01 20 0.02 20 -1 20 C-1 17.36 -1 14.72 -1 12 C-1.99 12.495 -1.99 12.495 -3 13 C-3.46651207 15.12576782 -3.46651207 15.12576782 -3.625 17.5625 C-3.69976563 18.38878906 -3.77453125 19.21507812 -3.8515625 20.06640625 C-3.90054688 20.70449219 -3.94953125 21.34257813 -4 22 C-5.32 22.33 -6.64 22.66 -8 23 C-8 16.4 -8 9.8 -8 3 C-6.68 2.67 -5.36 2.34 -4 2 C-4 4.31 -4 6.62 -4 9 C-3.01 9 -2.02 9 -1 9 C-1.020625 7.700625 -1.04125 6.40125 -1.0625 5.0625 C-1.08399454 3.70834367 -1.07148199 2.35243917 -1 1 C-0.67 0.67 -0.34 0.34 0 0 Z " fill="#D2D2D2" transform="translate(671,579)"/>
<path d="M0 0 C0.33 1.65 0.66 3.3 1 5 C0.01 5.33 -0.98 5.66 -2 6 C-2 5.01 -2 4.02 -2 3 C-2.99 3 -3.98 3 -5 3 C-5 7.95 -5 12.9 -5 18 C-4.34 17.67 -3.68 17.34 -3 17 C-2.34227572 13.97065509 -2.34227572 13.97065509 -2 11 C-2.66 11 -3.32 11 -4 11 C-4 10.34 -4 9.68 -4 9 C-2.35 8.67 -0.7 8.34 1 8 C1.49230769 15.26153846 1.49230769 15.26153846 -1 19 C-1.66 19.66 -2.32 20.32 -3 21 C-4.65 20.67 -6.3 20.34 -8 20 C-8.08089542 17.22858283 -8.14044062 14.45952181 -8.1875 11.6875 C-8.22520508 10.50897461 -8.22520508 10.50897461 -8.26367188 9.30664062 C-8.27333984 8.54931641 -8.28300781 7.79199219 -8.29296875 7.01171875 C-8.3086792 6.31522217 -8.32438965 5.61872559 -8.34057617 4.90112305 C-7.48602833 0.13096959 -4.29368885 -0.34813693 0 0 Z " fill="#ECECEC" transform="translate(700,571)"/>
<path d="M0 0 C1.1446875 0.3403125 1.1446875 0.3403125 2.3125 0.6875 C2.6425 2.3375 2.9725 3.9875 3.3125 5.6875 C2.3225 6.0175 1.3325 6.3475 0.3125 6.6875 C0.3125 5.3675 0.3125 4.0475 0.3125 2.6875 C-0.6775 3.1825 -0.6775 3.1825 -1.6875 3.6875 C-2.15751033 6.96305608 -2.15751033 6.96305608 -2.3125 10.75 C-2.38726563 12.04035156 -2.46203125 13.33070313 -2.5390625 14.66015625 C-2.58804688 15.65917969 -2.63703125 16.65820312 -2.6875 17.6875 C-2.0275 17.6875 -1.3675 17.6875 -0.6875 17.6875 C-0.3575 15.7075 -0.0275 13.7275 0.3125 11.6875 C1.3025 11.6875 2.2925 11.6875 3.3125 11.6875 C3 15.0625 3 15.0625 2.3125 18.6875 C-0.91541555 20.8394437 -1.97150809 20.88836443 -5.6875 20.6875 C-5.76836376 17.74945004 -5.8279283 14.81361925 -5.875 11.875 C-5.90013672 11.04162109 -5.92527344 10.20824219 -5.95117188 9.34960938 C-5.96083984 8.54716797 -5.97050781 7.74472656 -5.98046875 6.91796875 C-5.9961792 6.17957764 -6.01188965 5.44118652 -6.02807617 4.68041992 C-5.39042205 0.94911482 -3.70264512 -0.43054013 0 0 Z " fill="#E4E4E4" transform="translate(628.6875,593.3125)"/>
<path d="M0 0 C0 1.32 0 2.64 0 4 C-0.99 4 -1.98 4 -3 4 C-3 9.94 -3 15.88 -3 22 C-3.99 22 -4.98 22 -6 22 C-6 16.39 -6 10.78 -6 5 C-6.99 5.33 -7.98 5.66 -9 6 C-8.875 4.125 -8.875 4.125 -8 2 C-5.25822503 0.83328724 -2.99432393 0 0 0 Z " fill="#E9E9E9" transform="translate(662,582)"/>
<path d="M0 0 C0.66 0 1.32 0 2 0 C2 5.61 2 11.22 2 17 C3.65 16.67 5.3 16.34 7 16 C7 16.66 7 17.32 7 18 C1.25 21 1.25 21 -1 21 C-1.02888146 17.68751813 -1.04675799 14.37506833 -1.0625 11.0625 C-1.07087891 10.11697266 -1.07925781 9.17144531 -1.08789062 8.19726562 C-1.09111328 7.29814453 -1.09433594 6.39902344 -1.09765625 5.47265625 C-1.10289307 4.64000244 -1.10812988 3.80734863 -1.11352539 2.94946289 C-1 1 -1 1 0 0 Z " fill="#E0E0E0" transform="translate(634,591)"/>
<path d="M0 0 C0.66 0 1.32 0 2 0 C2.33 0.99 2.66 1.98 3 3 C3.99 2.67 4.98 2.34 6 2 C6 4.31 6 6.62 6 9 C4.68 9 3.36 9 2 9 C1.67 10.98 1.34 12.96 1 15 C0.34 15 -0.32 15 -1 15 C-1.02685412 12.68756208 -1.04632841 10.3750373 -1.0625 8.0625 C-1.07410156 6.77472656 -1.08570313 5.48695313 -1.09765625 4.16015625 C-1 1 -1 1 0 0 Z " fill="#0B0B0B" transform="translate(627,596)"/>
<path d="M0 0 C0.66 0 1.32 0 2 0 C2 6.6 2 13.2 2 20 C1.01 20.33 0.02 20.66 -1 21 C-1.02888146 17.68751813 -1.04675799 14.37506833 -1.0625 11.0625 C-1.07087891 10.11697266 -1.07925781 9.17144531 -1.08789062 8.19726562 C-1.09111328 7.29814453 -1.09433594 6.39902344 -1.09765625 5.47265625 C-1.10289307 4.64000244 -1.10812988 3.80734863 -1.11352539 2.94946289 C-1 1 -1 1 0 0 Z " fill="#F8F8F8" transform="translate(676,577)"/>
<path d="M0 0 C0.78375 0.04125 1.5675 0.0825 2.375 0.125 C2.705 1.775 3.035 3.425 3.375 5.125 C2.385 5.455 1.395 5.785 0.375 6.125 C0.375 5.135 0.375 4.145 0.375 3.125 C-0.615 3.125 -1.605 3.125 -2.625 3.125 C-2.625 7.745 -2.625 12.365 -2.625 17.125 C-2.955 17.125 -3.285 17.125 -3.625 17.125 C-3.79320551 15.18763299 -3.95951095 13.25010094 -4.125 11.3125 C-4.2178125 10.23355469 -4.310625 9.15460937 -4.40625 8.04296875 C-4.625 5.125 -4.625 5.125 -4.625 2.125 C-2.625 0.125 -2.625 0.125 0 0 Z " fill="#C8C8C8" transform="translate(697.625,570.875)"/>
<path d="M0 0 C0.99 0 1.98 0 3 0 C3 0.99 3 1.98 3 3 C3.66 3 4.32 3 5 3 C5 3.66 5 4.32 5 5 C3.68 5.33 2.36 5.66 1 6 C1 6.66 1 7.32 1 8 C1.66 8 2.32 8 3 8 C3 9.98 3 11.96 3 14 C2.01 14.33 1.02 14.66 0 15 C0 10.05 0 5.1 0 0 Z " fill="#0F0F0F" transform="translate(695,574)"/>
<path d="M0 0 C0.99 0.33 1.98 0.66 3 1 C3 4.96 3 8.92 3 13 C2.01 13.33 1.02 13.66 0 14 C0 9.38 0 4.76 0 0 Z " fill="#1F1F1F" transform="translate(646,590)"/>
<path d="M0 0 C1.67542976 0.28604898 3.34385343 0.61781233 5 1 C5.33 2.65 5.66 4.3 6 6 C5.01 6.33 4.02 6.66 3 7 C3 5.68 3 4.36 3 3 C1.02 3.66 -0.96 4.32 -3 5 C-1.125 1.125 -1.125 1.125 0 0 Z " fill="#DADADA" transform="translate(626,593)"/>
<path d="M0 0 C0.66 0.33 1.32 0.66 2 1 C2 1.99 2 2.98 2 4 C1.34 3.67 0.68 3.34 0 3 C0 7.62 0 12.24 0 17 C-0.33 17 -0.66 17 -1 17 C-1.16808419 14.89594609 -1.33441948 12.79175242 -1.5 10.6875 C-1.5928125 9.51574219 -1.685625 8.34398437 -1.78125 7.13671875 C-1.92364989 5.094806 -2 3.0468721 -2 1 C-1.34 0.67 -0.68 0.34 0 0 Z " fill="#B2B2B2" transform="translate(646,587)"/>
<path d="M0 0 C0.66 0 1.32 0 2 0 C2 1.98 2 3.96 2 6 C1.01 6.33 0.02 6.66 -1 7 C-1.04254356 5.00045254 -1.04080783 2.99958364 -1 1 C-0.67 0.67 -0.34 0.34 0 0 Z " fill="#2D2D2D" transform="translate(696,582)"/>
<path d="M0 0 C2.0625 0.4375 2.0625 0.4375 4 1 C3.67 2.65 3.34 4.3 3 6 C2.34 6 1.68 6 1 6 C1 4.68 1 3.36 1 2 C0.34 1.67 -0.32 1.34 -1 1 C-0.67 0.67 -0.34 0.34 0 0 Z " fill="#D8D8D8" transform="translate(697,571)"/>
</svg>
