<?xml version="1.0" encoding="UTF-8"?>
<svg version="1.1" xmlns="http://www.w3.org/2000/svg" width="800" height="800">
<path d="M0 0 C264 0 528 0 800 0 C800 264 800 528 800 800 C536 800 272 800 0 800 C0 536 0 272 0 0 Z " fill="#0000FF" transform="translate(0,0)"/>
<path d="M0 0 C0.77263184 0.09651855 1.54526367 0.19303711 2.34130859 0.29248047 C35.71561107 4.50141611 68.40760789 17.74012897 90.375 44 C100.81842674 57.77034117 104.68656644 69.64924829 107 87 C79.28 87 51.56 87 23 87 C21.02 83.04 21.02 83.04 19 79 C11.50605013 68.74110679 -1.16951119 64.41666308 -13.23535156 62.48095703 C-34.39372164 59.7778449 -57.15783859 60.2440656 -75 73 C-83.85657624 80.20922044 -88.97157813 89.78627464 -91 101 C-91.59497571 106.93027569 -91.53579729 112.88520139 -91.46655273 118.83862305 C-91.43750903 121.56165383 -91.44600197 124.28273851 -91.45898438 127.00585938 C-91.44209676 141.25567821 -90.37985545 154.69766262 -80.5 165.8125 C-79.675 166.534375 -78.85 167.25625 -78 168 C-77.278125 168.66 -76.55625 169.32 -75.8125 170 C-68.51656272 175.18822207 -60.68719628 178.06329258 -52 180 C-50.9006311 180.25269653 -50.9006311 180.25269653 -49.77905273 180.51049805 C-30.52749733 184.6982327 -9.2865179 182.6913168 7.5390625 171.8984375 C12.64511665 167.95948144 16.12542133 163.74915733 19 158 C2.5 158 -14 158 -31 158 C-31 141.17 -31 124.34 -31 107 C15.53 107 62.06 107 110 107 C110 151.55 110 196.1 110 242 C90.2 242 70.4 242 50 242 C49.175 237.17375 48.35 232.3475 47.5 227.375 C47.23896484 225.86341309 46.97792969 224.35182617 46.70898438 222.79443359 C46.40444336 220.98966553 46.40444336 220.98966553 46.09375 219.1484375 C45.88427734 217.92302246 45.67480469 216.69760742 45.45898438 215.43505859 C45.03179927 212.23798709 44.91378884 209.21998673 45 206 C41.43698985 207.18767005 41.25924207 207.86769124 39.4375 211 C27.29921429 229.72679288 3.24441132 238.12826357 -17.55664062 242.97753906 C-40.69165278 247.68371074 -67.21946117 246.97240753 -90 241 C-91.08716309 240.72712158 -91.08716309 240.72712158 -92.19628906 240.44873047 C-118.28256169 233.73826172 -143.72034037 217.50852466 -158.25 194.625 C-177.15105871 162.37530626 -181.55299288 122.85819811 -172.39794922 86.61669922 C-164.02809119 56.17800204 -144.0594011 34.04393638 -117.4375 17.875 C-81.9295001 -1.78546974 -39.6239714 -5.3609396 0 0 Z " fill="#FDFDFF" transform="translate(430,270)"/>
</svg>
