<?xml version="1.0" encoding="UTF-8"?>
<svg version="1.1" xmlns="http://www.w3.org/2000/svg" width="500" height="500">
<path d="M0 0 C165 0 330 0 500 0 C500 165 500 330 500 500 C335 500 170 500 0 500 C0 335 0 170 0 0 Z " fill="#0000FE" transform="translate(0,0)"/>
<path d="M0 0 C1.97539119 0.00373884 3.95078426 0.00658168 5.92617798 0.00857544 C11.07830088 0.01614342 16.23030765 0.03573167 21.38238525 0.0579834 C26.65855337 0.07859064 31.93474058 0.0876087 37.2109375 0.09765625 C47.52869633 0.11898525 57.84636969 0.1530367 68.1640625 0.1953125 C67.1640625 3.1953125 67.1640625 3.1953125 64.6640625 4.7578125 C57.64970719 9.19684895 52.00913121 16.04396452 49.11328125 23.796875 C48.21856532 26.05759756 47.19850678 28.17528655 46.10473633 30.34521484 C45.74205154 31.06607269 45.37936676 31.78693054 45.00569153 32.52963257 C44.72795395 33.07930695 44.45021637 33.62898132 44.1640625 34.1953125 C43.40952789 34.20339935 42.65499329 34.21148621 41.87759399 34.21981812 C34.72851798 34.29811499 27.57963584 34.38550798 20.43079567 34.48283958 C16.75647296 34.53255221 13.08217558 34.57888191 9.40771484 34.6171875 C5.85437584 34.65435979 2.30126264 34.70080083 -1.25188065 34.75337601 C-3.25120842 34.78062755 -5.25065644 34.79854971 -7.25009155 34.81625366 C-20.84668407 34.76167385 -20.84668407 34.76167385 -32.7109375 40.5078125 C-33.44183594 41.12914062 -34.17273438 41.75046875 -34.92578125 42.390625 C-39.81947322 47.01411312 -43.01809815 51.2622889 -43.2421875 58.08203125 C-43.2846502 60.01541126 -43.31548819 61.94907436 -43.3359375 63.8828125 C-43.3771875 64.83865234 -43.4184375 65.79449219 -43.4609375 66.77929688 C-43.53178782 73.27538531 -42.29994283 77.07584761 -38.32617188 82.23364258 C-36.8359375 84.1953125 -36.8359375 84.1953125 -35.76904297 86.38696289 C-34.96966553 88.38067243 -34.96966553 88.38067243 -32.8125 89.171875 C-32.03648437 89.38585937 -31.26046875 89.59984375 -30.4609375 89.8203125 C-28.1347492 90.48160349 -26.05759678 91.07679264 -23.921875 92.21875 C-18.91936925 94.56074707 -13.24291697 94.38438521 -7.8125 94.51171875 C-6.69323624 94.5428904 -6.69323624 94.5428904 -5.55136108 94.57469177 C-3.18797242 94.6396248 -0.82448086 94.69880821 1.5390625 94.7578125 C3.14974985 94.80105134 4.76042713 94.84466727 6.37109375 94.88867188 C10.30197984 94.99595146 14.2329534 95.09544108 18.1640625 95.1953125 C18.1640625 88.9253125 18.1640625 82.6553125 18.1640625 76.1953125 C4.3040625 76.1953125 -9.5559375 76.1953125 -23.8359375 76.1953125 C-23.8359375 73.1953125 -23.8359375 73.1953125 -21.8359375 71.0703125 C-21.15724609 70.43029297 -21.15724609 70.43029297 -20.46484375 69.77734375 C-16.04182181 65.48160301 -11.76355622 60.85268179 -8.4609375 55.6328125 C-7.9246875 54.8284375 -7.3884375 54.0240625 -6.8359375 53.1953125 C-6.1759375 53.1953125 -5.5159375 53.1953125 -4.8359375 53.1953125 C-4.371875 52.23625 -4.371875 52.23625 -3.8984375 51.2578125 C-2.8359375 49.1953125 -2.8359375 49.1953125 -1.8359375 48.1953125 C1.26657451 48.10657115 4.3467437 48.08012795 7.44921875 48.09765625 C8.38003769 48.0990712 9.31085663 48.10048615 10.2698822 48.10194397 C13.25547441 48.10756078 16.24099279 48.1201161 19.2265625 48.1328125 C21.24544163 48.13782534 23.26432193 48.14238862 25.28320312 48.14648438 C30.24351822 48.15753567 35.20377782 48.17481155 40.1640625 48.1953125 C40.18388184 49.0109668 40.20370117 49.82662109 40.22412109 50.66699219 C40.30318756 53.75364235 40.38989924 56.83996618 40.48144531 59.92626953 C40.53761823 61.89470193 40.58532721 63.86337012 40.6328125 65.83203125 C40.95219889 76.31855103 41.97686586 86.33465299 45.2890625 96.3203125 C47.1640625 102.02742929 47.1640625 102.02742929 47.1640625 104.1953125 C47.8240625 104.1953125 48.4840625 104.1953125 49.1640625 104.1953125 C49.6384375 105.1440625 50.1128125 106.0928125 50.6015625 107.0703125 C54.92918666 114.64750498 61.38608746 120.80769131 68.1640625 126.1953125 C68.1640625 126.5253125 68.1640625 126.8553125 68.1640625 127.1953125 C57.54000925 127.26537587 46.91601258 127.31840591 36.2917738 127.35074902 C31.35645978 127.36628605 26.42130589 127.38730049 21.48608398 127.42163086 C16.70737997 127.45465762 11.92882819 127.47225495 7.15001869 127.47994423 C5.3431185 127.4854112 3.53622494 127.49608174 1.7293911 127.51250267 C-19.64932095 127.69875126 -42.3963885 125.9312047 -59.8359375 112.1953125 C-60.62355469 111.6178125 -61.41117188 111.0403125 -62.22265625 110.4453125 C-65.42103235 107.6915537 -67.88783483 104.64979426 -70.4609375 101.3203125 C-71.17636719 100.42119141 -71.17636719 100.42119141 -71.90625 99.50390625 C-78.8359375 90.63005642 -78.8359375 90.63005642 -78.8359375 86.1953125 C-79.4959375 86.1953125 -80.1559375 86.1953125 -80.8359375 86.1953125 C-85.40569088 70.3031791 -87.59567913 53.81554999 -80.02734375 38.34375 C-72.56357004 24.88448593 -61.68116039 12.59074015 -46.8359375 7.1953125 C-44.47135333 6.66734237 -42.2589992 6.39723431 -39.8359375 6.1953125 C-39.8359375 5.5353125 -39.8359375 4.8753125 -39.8359375 4.1953125 C-27.53986693 -1.19025724 -13.14039845 -0.07384804 0 0 Z " fill="#FBFBFD" transform="translate(190.8359375,186.8046875)"/>
<path d="M0 0 C0 0.66 0 1.32 0 2 C0.73347656 2.26425781 1.46695313 2.52851563 2.22265625 2.80078125 C9.30605669 5.85929593 15.6174545 11.67661292 20 18 C20.33 18.99 20.66 19.98 21 21 C14.67502881 24.34933264 8.34204052 27.68309745 2 31 C1.33033203 31.350625 0.66066406 31.70125 -0.02929688 32.0625 C-1.68237616 32.92403969 -3.34093841 33.77503741 -5 34.625 C-5.9075 35.09164062 -6.815 35.55828125 -7.75 36.0390625 C-10 37 -10 37 -13 37 C-18 31.65116279 -18 31.65116279 -18 29 C-30.69705873 22.15838097 -45.33381071 20.84353939 -59.125 24.6875 C-65.44306013 26.91602368 -69.27742961 29.148849 -72.8125 35 C-77.19114884 46.0618497 -76.77294118 62.04872548 -72.265625 72.94140625 C-68.70396067 78.73460718 -63.54475078 81.43888217 -57.125 83.1875 C-44.17809879 85.7248324 -32.41390825 83.6977599 -20 80 C-20 79.34 -20 78.68 -20 78 C-19.4225 77.505 -18.845 77.01 -18.25 76.5 C-14.9629186 72.84768733 -13.64336635 68.58044662 -12 64 C-7.68804092 65.50441815 -4.11766781 67.77412796 -0.38671875 70.3515625 C0.22769577 70.77045746 0.84211029 71.18935242 1.47514343 71.62094116 C3.42403093 72.95115564 5.3682953 74.28795317 7.3125 75.625 C8.63837145 76.53168948 9.9645403 77.43794422 11.29101562 78.34375 C14.53080789 80.55748267 17.76647232 82.77712798 21 85 C19.44817047 90.16081877 17.34685236 93.29336002 13.5 97 C12.68934082 97.78818115 12.68934082 97.78818115 11.86230469 98.59228516 C-6.31783302 115.81472874 -29.83277792 117.53636521 -53.61328125 117.203125 C-59.85612969 117.03253744 -65.88614534 116.31430273 -72 115 C-72 114.34 -72 113.68 -72 113 C-73.258125 112.979375 -74.51625 112.95875 -75.8125 112.9375 C-84.88318964 111.92648122 -92.23434541 105.01579238 -99.125 99.48046875 C-100.69204795 98.24315381 -102.33869172 97.10753885 -104 96 C-104.6875 92.875 -104.6875 92.875 -105 90 C-105.99 89.67 -106.98 89.34 -108 89 C-109.38671875 86.19921875 -109.38671875 86.19921875 -110.6875 82.6875 C-111.12449219 81.53636719 -111.56148437 80.38523437 -112.01171875 79.19921875 C-113 76 -113 76 -113 72 C-113.66 72 -114.32 72 -115 72 C-116.17902598 65.67618684 -116.18391639 59.53966933 -116.1875 53.125 C-116.19974609 51.97902344 -116.21199219 50.83304688 -116.22460938 49.65234375 C-116.23539653 43.40298642 -115.85762548 37.97670808 -114 32 C-113.34 32 -112.68 32 -112 32 C-111.773125 30.700625 -111.54625 29.40125 -111.3125 28.0625 C-109.08128724 18.19248243 -103.45963315 10.76108062 -95.1875 5.0625 C-93 4 -93 4 -91 4 C-90.67 3.01 -90.34 2.02 -90 1 C-86.85615346 -1.02603444 -83.40266728 -2.45809203 -80 -4 C-78.84951172 -4.56460938 -78.84951172 -4.56460938 -77.67578125 -5.140625 C-54.53079855 -15.67178861 -21.92224674 -11.39956831 0 0 Z " fill="#F8F8FD" transform="translate(363,197)"/>
<path d="M0 0 C1.97539119 0.00373884 3.95078426 0.00658168 5.92617798 0.00857544 C11.07830088 0.01614342 16.23030765 0.03573167 21.38238525 0.0579834 C26.65855337 0.07859064 31.93474058 0.0876087 37.2109375 0.09765625 C47.52869633 0.11898525 57.84636969 0.1530367 68.1640625 0.1953125 C67.8340625 1.1853125 67.5040625 2.1753125 67.1640625 3.1953125 C66.1740625 3.5253125 65.1840625 3.8553125 64.1640625 4.1953125 C64.1640625 3.5353125 64.1640625 2.8753125 64.1640625 2.1953125 C52.45446367 2.2798553 40.74499899 2.3747926 29.03559208 2.48283958 C23.59789116 2.53269205 18.16020862 2.57902286 12.72241211 2.6171875 C7.47035015 2.65418012 2.21844631 2.70057752 -3.03347969 2.75337601 C-5.03280412 2.77184587 -7.03216236 2.78698089 -9.03153801 2.79865646 C-11.84141963 2.81564624 -14.65094494 2.84471097 -17.46069336 2.87646484 C-18.27925308 2.87862503 -19.09781281 2.88078522 -19.94117737 2.88301086 C-24.79251765 2.95261713 -29.12355244 3.57454365 -33.80616093 4.86667824 C-36.10776723 5.23932353 -37.6334502 4.90090499 -39.8359375 4.1953125 C-27.53986693 -1.19025724 -13.14039845 -0.07384804 0 0 Z " fill="#B5B5FB" transform="translate(190.8359375,186.8046875)"/>
<path d="M0 0 C0.66 0 1.32 0 2 0 C1.67 1.32 1.34 2.64 1 4 C-0.14512558 4.0154612 -0.14512558 4.0154612 -1.31338501 4.03123474 C-8.52250006 4.12938154 -15.73153316 4.23191968 -22.94051552 4.33933926 C-26.64634992 4.3944056 -30.35219242 4.44779861 -34.05810547 4.49731445 C-37.63728726 4.54519946 -41.21637891 4.59754923 -44.79545212 4.65294075 C-46.1581026 4.67325548 -47.52077768 4.69198575 -48.88347244 4.70907402 C-50.79818736 4.73336053 -52.7128198 4.76390201 -54.62744141 4.79467773 C-55.71554108 4.81022202 -56.80364075 4.8257663 -57.92471313 4.84178162 C-61.01665357 5.0008568 -63.95912522 5.43060063 -67 6 C-66 4 -66 4 -64.1709137 3.38050842 C-57.09672874 1.97354901 -50.22802299 1.67385627 -43.02734375 1.62109375 C-41.22095177 1.59560204 -41.22095177 1.59560204 -39.37806702 1.56959534 C-35.56459669 1.51682333 -31.75113614 1.47628927 -27.9375 1.4375 C-24.0917797 1.39358867 -20.24614339 1.34700567 -16.40052795 1.29469299 C-14.01455552 1.26268897 -11.62850792 1.23581366 -9.24241638 1.21446228 C-7.63923302 1.19422752 -7.63923302 1.19422752 -6.00366211 1.17358398 C-4.58663246 1.15931618 -4.58663246 1.15931618 -3.14097595 1.14476013 C-1.01772721 1.23699204 -1.01772721 1.23699204 0 0 Z " fill="#9695F2" transform="translate(234,217)"/>
<path d="M0 0 C13.86 0 27.72 0 42 0 C42.375 13.75 42.375 13.75 42.47802734 18.00683594 C42.79698781 28.28573389 43.87424516 38.17619908 47 48 C46.01 47.67 45.02 47.34 44 47 C44 46.01 44 45.02 44 44 C43.34 44 42.68 44 42 44 C40.71158739 35.16372139 40.88961384 26.3430544 40.9375 17.4375 C40.9684375 9.3009375 40.9684375 9.3009375 41 1 C20.21 1.495 20.21 1.495 -1 2 C-0.67 1.34 -0.34 0.68 0 0 Z " fill="#898CF9" transform="translate(189,235)"/>
<path d="M0 0 C1.33617352 0.97528737 2.6688751 1.95533319 4 2.9375 C4.7425 3.48277344 5.485 4.02804687 6.25 4.58984375 C6.8275 5.05519531 7.405 5.52054687 8 6 C8 6.33 8 6.66 8 7 C-19.72 7 -47.44 7 -76 7 C-76 6.67 -76 6.34 -76 6 C-50.59 5.67 -25.18 5.34 1 5 C0.505 2.525 0.505 2.525 0 0 Z " fill="#D6D6FC" transform="translate(251,307)"/>
<path d="M0 0 C0 3 0 3 -2 7 C17.305 7.495 17.305 7.495 37 8 C37 14.6 37 21.2 37 28 C36.67 28 36.34 28 36 28 C36 21.73 36 15.46 36 9 C22.14 9 8.28 9 -6 9 C-6 6 -6 6 -3.5625 3.375 C-2.716875 2.59125 -1.87125 1.8075 -1 1 C-0.67 0.67 -0.34 0.34 0 0 Z " fill="#AEAEF5" transform="translate(173,254)"/>
<path d="M0 0 C0.84643541 2.44525786 1.01227083 3.93390252 0.53515625 6.50390625 C-0.17220418 11.12498352 -0.14507339 15.64543624 -0.125 20.3125 C-0.12886719 21.23095703 -0.13273437 22.14941406 -0.13671875 23.09570312 C-0.13542969 23.96775391 -0.13414063 24.83980469 -0.1328125 25.73828125 C-0.13168457 26.53274658 -0.13055664 27.32721191 -0.12939453 28.14575195 C-0.2026486 30.01607381 -0.2026486 30.01607381 1 31 C1.23427778 33.01594582 1.41336124 35.038474 1.5625 37.0625 C1.64628906 38.16722656 1.73007813 39.27195312 1.81640625 40.41015625 C1.87699219 41.26480469 1.93757813 42.11945313 2 43 C-3.11503615 37.88496385 -3.20361832 27.30154979 -3.3125 20.375 C-2.95766129 5.91532258 -2.95766129 5.91532258 0 0 Z " fill="#8385F6" transform="translate(109,230)"/>
<path d="M0 0 C0.92151855 0.00080566 1.84303711 0.00161133 2.79248047 0.00244141 C19.69976441 0.1540096 19.69976441 0.1540096 25.75 4.1875 C19.59765625 4.28515625 19.59765625 4.28515625 17.75 4.1875 C17.255 3.6925 17.255 3.6925 16.75 3.1875 C14.15846893 3.02753834 11.5904798 2.92811303 8.99609375 2.87109375 C8.22064713 2.85031265 7.4452005 2.82953156 6.64625549 2.80812073 C4.16009692 2.74254198 1.67382955 2.68370201 -0.8125 2.625 C-2.49415204 2.58182267 -4.17579294 2.53820864 -5.85742188 2.49414062 C-9.98816871 2.38685221 -14.11902536 2.28560868 -18.25 2.1875 C-18.25 1.8575 -18.25 1.5275 -18.25 1.1875 C-12.13538643 0.29874803 -6.17616276 -0.00561163 0 0 Z " fill="#BBBBFB" transform="translate(319.25,186.8125)"/>
<path d="M0 0 C0.80060349 0.00007553 1.60120697 0.00015106 2.42607117 0.00022888 C3.71527214 0.00797081 3.71527214 0.00797081 5.03051758 0.01586914 C5.91411453 0.01728409 6.79771149 0.01869904 7.70808411 0.02015686 C10.53044011 0.0257547 13.3527168 0.03830678 16.17504883 0.05102539 C18.08845914 0.05604067 20.0018707 0.06060353 21.9152832 0.06469727 C26.60609355 0.07487256 31.29673241 0.09444841 35.98754883 0.11352539 C35.98754883 7.04352539 35.98754883 13.97352539 35.98754883 21.11352539 C35.65754883 21.11352539 35.32754883 21.11352539 34.98754883 21.11352539 C34.98754883 14.51352539 34.98754883 7.91352539 34.98754883 1.11352539 C29.61194871 1.21033715 24.23714268 1.31298696 18.86206055 1.4309082 C17.03270354 1.46924316 15.20326998 1.50408802 13.3737793 1.53540039 C10.74736123 1.58095344 8.12147224 1.6389627 5.49536133 1.69946289 C4.26403976 1.7167897 4.26403976 1.7167897 3.00784302 1.73446655 C-1.47491557 1.67077979 -1.47491557 1.67077979 -5.01245117 4.11352539 C-6.00245117 4.11352539 -6.99245117 4.11352539 -8.01245117 4.11352539 C-7.68245117 3.12352539 -7.35245117 2.13352539 -7.01245117 1.11352539 C-4.30620747 0.21144416 -2.77394132 -0.0087506 0 0 Z " fill="#DCDEFC" transform="translate(194.012451171875,235.886474609375)"/>
<path d="M0 0 C1.33617352 0.97528737 2.6688751 1.95533319 4 2.9375 C5.11375 3.75541016 5.11375 3.75541016 6.25 4.58984375 C6.8275 5.05519531 7.405 5.52054687 8 6 C8 6.33 8 6.66 8 7 C0.08 7 -7.84 7 -16 7 C-16 6.67 -16 6.34 -16 6 C-7.585 5.505 -7.585 5.505 1 5 C0.67 3.35 0.34 1.7 0 0 Z " fill="#DCDDFB" transform="translate(251,307)"/>
<path d="M0 0 C-0.86625 0.53625 -1.7325 1.0725 -2.625 1.625 C-5.13316622 3.27729908 -7.16874986 5.08673014 -9.25 7.25 C-10.1575 8.1575 -11.065 9.065 -12 10 C-12.66 10 -13.32 10 -14 10 C-12.56314642 4.97101246 -10.05763331 3.04322498 -6 0 C-3.50907189 -1.24546405 -2.58919267 -0.7767578 0 0 Z " fill="#3F3FF7" transform="translate(304,223)"/>
<path d="M0 0 C2.85839826 5.71679653 4.97888175 11.66906684 6 18 C5.01 17.67 4.02 17.34 3 17 C3 16.01 3 15.02 3 14 C2.34 14 1.68 14 1 14 C0.67 9.38 0.34 4.76 0 0 Z " fill="#BDBEF6" transform="translate(230,265)"/>
<path d="M0 0 C0.33 0.66 0.66 1.32 1 2 C-0.07192184 3.3218362 -1.15802695 4.63217927 -2.25 5.9375 C-2.85328125 6.66839844 -3.4565625 7.39929688 -4.078125 8.15234375 C-6.10741134 10.10326334 -7.254407 10.61731779 -10 11 C-7.17477391 6.32751069 -4.32239956 3.34003602 0 0 Z " fill="#BCBDF8" transform="translate(129,203)"/>
<path d="M0 0 C0.66 0 1.32 0 2 0 C1.67 0.99 1.34 1.98 1 3 C-6.92 3 -14.84 3 -23 3 C-23 2.67 -23 2.34 -23 2 C-22.00818726 1.96241577 -22.00818726 1.96241577 -20.99633789 1.92407227 C-18.01817695 1.80846898 -15.0403608 1.68558246 -12.0625 1.5625 C-10.50112305 1.50352539 -10.50112305 1.50352539 -8.90820312 1.44335938 C-7.42416992 1.38051758 -7.42416992 1.38051758 -5.91015625 1.31640625 C-4.53549194 1.26141968 -4.53549194 1.26141968 -3.13305664 1.20532227 C-1.0179272 1.22996136 -1.0179272 1.22996136 0 0 Z " fill="#D5D7F7" transform="translate(234,217)"/>
<path d="M0 0 C0.66 0.33 1.32 0.66 2 1 C-1.20760251 4.80635497 -4.40746109 8.54563567 -8 12 C-8.66 11.67 -9.32 11.34 -10 11 C-8.89718873 9.72799029 -7.79269231 8.45744147 -6.6875 7.1875 C-6.07261719 6.47980469 -5.45773438 5.77210938 -4.82421875 5.04296875 C-3.26665665 3.29863261 -1.67341125 1.63221959 0 0 Z " fill="#4749F6" transform="translate(254,191)"/>
<path d="M0 0 C-0.99 0 -1.98 0 -3 0 C-3.33 0.99 -3.66 1.98 -4 3 C-7.73567172 3.76411467 -10.34811918 4.07174763 -14 3 C-12.42274653 2.29866401 -10.83788667 1.614417 -9.25 0.9375 C-7.92742187 0.36322266 -7.92742187 0.36322266 -6.578125 -0.22265625 C-3.84743691 -1.04600008 -2.63098653 -0.9773992 0 0 Z " fill="#A3A3F5" transform="translate(297,190)"/>
<path d="M0 0 C-1.5830577 4.2742558 -4.50568404 6.26531794 -8 9 C-8 6 -8 6 -6.7578125 4.39453125 C-5.94957031 3.61142578 -5.94957031 3.61142578 -5.125 2.8125 C-4.59132812 2.28269531 -4.05765625 1.75289062 -3.5078125 1.20703125 C-2 0 -2 0 0 0 Z " fill="#3E40F7" transform="translate(159,227)"/>
<path d="M0 0 C1.60495567 0.11442461 3.20898119 0.24194694 4.8125 0.375 C5.70582031 0.44460937 6.59914063 0.51421875 7.51953125 0.5859375 C10 1 10 1 13 3 C8.07872966 3.16682272 4.49656104 3.24828052 0 1 C0 0.67 0 0.34 0 0 Z " fill="#C0C4F8" transform="translate(332,188)"/>
<path d="M0 0 C2.64 1.98 5.28 3.96 8 6 C7.01 6.33 6.02 6.66 5 7 C5 6.34 5 5.68 5 5 C3.68 5 2.36 5 1 5 C0.67 3.35 0.34 1.7 0 0 Z " fill="#AFB7F4" transform="translate(251,307)"/>
<path d="M0 0 C1.32 0 2.64 0 4 0 C4 0.66 4 1.32 4 2 C4.66 2 5.32 2 6 2 C6.33 3.65 6.66 5.3 7 7 C5 5.625 5 5.625 3 4 C3 3.34 3 2.68 3 2 C2.01 1.67 1.02 1.34 0 1 C0 0.67 0 0.34 0 0 Z " fill="#CDCDF9" transform="translate(342,224)"/>
</svg>
